<?xml version="1.0" standalone="no"?><!DOCTYPE svg PUBLIC "-//W3C//DTD SVG 1.1//EN" "http://www.w3.org/Graphics/SVG/1.1/DTD/svg11.dtd"><svg t="1709708326276" class="icon" viewBox="0 0 1024 1024" version="1.1" xmlns="http://www.w3.org/2000/svg" p-id="3075" xmlns:xlink="http://www.w3.org/1999/xlink" width="32" height="32"><path d="M1003.52 880.59904h-61.35808v61.35808H1003.52V880.64z" fill="#000000" p-id="3076"></path><path d="M1003.52 819.05664h-61.35808v61.5424H1003.52v-61.5424zM1003.52 757.71904h-61.35808v61.3376H1003.52v-61.3376z" fill="#000000" p-id="3077"></path><path d="M1003.52 696.36096h-61.35808v61.35808H1003.52v-61.35808zM1003.52 634.79808h-61.35808v61.56288H1003.52v-61.56288z" fill="#000000" p-id="3078"></path><path d="M1003.52 573.46048h-61.35808v61.35808H1003.52V573.44zM1003.52 327.63904h-61.35808v61.56288H1003.52v-61.56288z" fill="#000000" p-id="3079"></path><path d="M1003.52 266.28096h-61.35808v61.35808H1003.52v-61.35808zM1003.52 204.73856h-61.35808v61.5424H1003.52V204.73856zM942.16192 880.59904h-61.56288v61.35808h61.56288V880.64z" fill="#000000" p-id="3080"></path><path d="M942.16192 819.05664h-61.56288v61.5424h61.56288v-61.5424zM942.16192 757.71904h-61.56288v61.3376h61.56288v-61.3376z" fill="#EE8700" p-id="3081"></path><path d="M942.16192 696.36096h-61.56288v61.35808h61.56288v-61.35808zM942.16192 634.79808h-61.56288v61.56288h61.56288v-61.56288z" fill="#EE8700" p-id="3082"></path><path d="M942.16192 573.46048h-61.56288v61.35808h61.56288V573.44z" fill="#EE8700" p-id="3083"></path><path d="M942.16192 511.8976h-61.56288v61.56288h61.56288v-61.56288zM942.16192 389.20192h-61.56288v61.3376h61.56288v-61.3376z" fill="#000000" p-id="3084"></path><path d="M942.16192 327.63904h-61.56288v61.56288h61.56288v-61.56288z" fill="#EE8700" p-id="3085"></path><path d="M942.16192 266.28096h-61.56288v61.35808h61.56288v-61.35808zM942.16192 204.73856h-61.56288v61.5424h61.56288V204.73856zM942.16192 143.38048h-61.56288v61.35808h61.56288V143.38048z" fill="#EE8700" p-id="3086"></path><path d="M942.16192 82.04288h-61.56288V143.36h61.56288V82.04288zM880.57856 941.95712h-61.35808V1003.52h61.35808v-61.56288z" fill="#000000" p-id="3087"></path><path d="M880.57856 880.59904h-61.35808v61.35808h61.35808V880.64z" fill="#EE8700" p-id="3088"></path><path d="M880.57856 819.05664h-61.35808v61.5424h61.35808v-61.5424zM880.57856 757.71904h-61.35808v61.3376h61.35808v-61.3376z" fill="#EE8700" p-id="3089"></path><path d="M880.57856 696.36096h-61.35808v61.35808h61.35808v-61.35808zM880.57856 634.79808h-61.35808v61.56288h61.35808v-61.56288z" fill="#EE8700" p-id="3090"></path><path d="M880.57856 573.46048h-61.35808v61.35808h61.35808V573.44z" fill="#EE8700" p-id="3091"></path><path d="M880.57856 511.8976h-61.35808v61.56288h61.35808v-61.56288z" fill="#EE8700" p-id="3092"></path><path d="M880.57856 450.53952h-61.35808v61.35808h61.35808v-61.35808z" fill="#000000" p-id="3093"></path><path d="M880.57856 389.20192h-61.35808v61.3376h61.35808v-61.3376zM880.57856 327.63904h-61.35808v61.56288h61.35808v-61.56288z" fill="#EE8700" p-id="3094"></path><path d="M880.57856 266.28096h-61.35808v61.35808h61.35808v-61.35808zM880.57856 204.73856h-61.35808v61.5424h61.35808V204.73856zM880.57856 143.38048h-61.35808v61.35808h61.35808V143.38048zM880.57856 82.04288h-61.35808V143.36h61.35808V82.04288z" fill="#EE8700" p-id="3095"></path><path d="M880.57856 20.48h-61.35808v61.56288h61.35808V20.48zM819.22048 941.95712h-61.35808V1003.52h61.35808v-61.56288z" fill="#000000" p-id="3096"></path><path d="M819.22048 880.59904h-61.35808v61.35808h61.35808V880.64z" fill="#EE8700" p-id="3097"></path><path d="M819.22048 819.05664h-61.35808v61.5424h61.35808v-61.5424zM819.22048 757.71904h-61.35808v61.3376h61.35808v-61.3376z" fill="#EE8700" p-id="3098"></path><path d="M819.22048 696.36096h-61.35808v61.35808h61.35808v-61.35808zM819.22048 634.79808h-61.35808v61.56288h61.35808v-61.56288z" fill="#EE8700" p-id="3099"></path><path d="M819.22048 573.46048h-61.35808v61.35808h61.35808V573.44z" fill="#EE8700" p-id="3100"></path><path d="M819.22048 511.8976h-61.35808v61.56288h61.35808v-61.56288z" fill="#EE8700" p-id="3101"></path><path d="M819.22048 450.53952h-61.35808v61.35808h61.35808v-61.35808z" fill="#000000" p-id="3102"></path><path d="M819.22048 389.20192h-61.35808v61.3376h61.35808v-61.3376zM819.22048 327.63904h-61.35808v61.56288h61.35808v-61.56288z" fill="#EE8700" p-id="3103"></path><path d="M819.22048 266.28096h-61.35808v61.35808h61.35808v-61.35808zM819.22048 204.73856h-61.35808v61.5424h61.35808V204.73856zM819.22048 143.38048h-61.35808v61.35808h61.35808V143.38048zM819.22048 82.04288h-61.35808V143.36h61.35808V82.04288z" fill="#EE8700" p-id="3104"></path><path d="M819.22048 20.48h-61.35808v61.56288h61.35808V20.48zM757.8624 941.95712h-61.56288V1003.52h61.56288v-61.56288z" fill="#000000" p-id="3105"></path><path d="M757.8624 880.59904h-61.56288v61.35808h61.56288V880.64z" fill="#EE8700" p-id="3106"></path><path d="M757.8624 819.05664h-61.56288v61.5424h61.56288v-61.5424zM757.8624 757.71904h-61.56288v61.3376h61.56288v-61.3376z" fill="#EE8700" p-id="3107"></path><path d="M757.8624 696.36096h-61.56288v61.35808h61.56288v-61.35808zM757.8624 634.79808h-61.56288v61.56288h61.56288v-61.56288z" fill="#EE8700" p-id="3108"></path><path d="M757.8624 573.46048h-61.56288v61.35808h61.56288V573.44z" fill="#EE8700" p-id="3109"></path><path d="M757.8624 511.8976h-61.56288v61.56288h61.56288v-61.56288z" fill="#EE8700" p-id="3110"></path><path d="M757.8624 450.53952h-61.56288v61.35808h61.56288v-61.35808z" fill="#000000" p-id="3111"></path><path d="M757.8624 389.20192h-61.56288v61.3376h61.56288v-61.3376zM757.8624 327.63904h-61.56288v61.56288h61.56288v-61.56288z" fill="#EE8700" p-id="3112"></path><path d="M757.8624 266.28096h-61.56288v61.35808h61.56288v-61.35808zM757.8624 204.73856h-61.56288v61.5424h61.56288V204.73856zM757.8624 143.38048h-61.56288v61.35808h61.56288V143.38048z" fill="#EE8700" p-id="3113"></path><path d="M757.8624 82.04288h-61.56288V143.36h61.56288V82.04288z" fill="#FFFFFF" p-id="3114"></path><path d="M757.8624 20.48h-61.56288v61.56288h61.56288V20.48zM696.29952 941.95712h-61.37856V1003.52H696.32v-61.56288z" fill="#000000" p-id="3115"></path><path d="M696.29952 880.59904h-61.37856v61.35808H696.32V880.64z" fill="#EE8700" p-id="3116"></path><path d="M696.29952 819.05664h-61.37856v61.5424H696.32v-61.5424zM696.29952 757.71904h-61.37856v61.3376H696.32v-61.3376z" fill="#EE8700" p-id="3117"></path><path d="M696.29952 696.36096h-61.37856v61.35808H696.32v-61.35808zM696.29952 634.79808h-61.37856v61.56288H696.32v-61.56288z" fill="#EE8700" p-id="3118"></path><path d="M696.29952 573.46048h-61.37856v61.35808H696.32V573.44z" fill="#EE8700" p-id="3119"></path><path d="M696.29952 511.8976h-61.37856v61.56288H696.32v-61.56288z" fill="#FFFFFF" p-id="3120"></path><path d="M696.29952 450.53952h-61.37856v61.35808H696.32v-61.35808z" fill="#000000" p-id="3121"></path><path d="M696.29952 389.20192h-61.37856v61.3376H696.32v-61.3376zM696.29952 327.63904h-61.37856v61.56288H696.32v-61.56288z" fill="#EE8700" p-id="3122"></path><path d="M696.29952 266.28096h-61.37856v61.35808H696.32v-61.35808zM696.29952 204.73856h-61.37856v61.5424H696.32V204.73856zM696.29952 143.38048h-61.37856v61.35808H696.32V143.38048z" fill="#EE8700" p-id="3123"></path><path d="M696.29952 82.04288h-61.37856V143.36H696.32V82.04288z" fill="#FFFFFF" p-id="3124"></path><path d="M696.29952 20.48h-61.37856v61.56288H696.32V20.48zM634.92096 941.95712h-61.56288V1003.52h61.56288v-61.56288z" fill="#000000" p-id="3125"></path><path d="M634.92096 880.59904h-61.56288v61.35808h61.56288V880.64z" fill="#EE8700" p-id="3126"></path><path d="M634.92096 819.05664h-61.56288v61.5424h61.56288v-61.5424zM634.92096 757.71904h-61.56288v61.3376h61.56288v-61.3376z" fill="#EE8700" p-id="3127"></path><path d="M634.92096 696.36096h-61.56288v61.35808h61.56288v-61.35808z" fill="#EE8700" p-id="3128"></path><path d="M634.92096 634.79808h-61.56288v61.56288h61.56288v-61.56288z" fill="#FFFFFF" p-id="3129"></path><path d="M634.92096 573.46048h-61.56288v61.35808h61.56288V573.44z" fill="#FFFFFF" p-id="3130"></path><path d="M634.92096 511.8976h-61.56288v61.56288h61.56288v-61.56288z" fill="#000000" p-id="3131"></path><path d="M634.92096 450.53952h-61.56288v61.35808h61.56288v-61.35808z" fill="#EE8700" p-id="3132"></path><path d="M634.92096 389.20192h-61.56288v61.3376h61.56288v-61.3376zM634.92096 327.63904h-61.56288v61.56288h61.56288v-61.56288z" fill="#EE8700" p-id="3133"></path><path d="M634.92096 266.28096h-61.56288v61.35808h61.56288v-61.35808z" fill="#000000" p-id="3134"></path><path d="M634.92096 204.73856h-61.56288v61.5424h61.56288V204.73856zM634.92096 143.38048h-61.56288v61.35808h61.56288V143.38048z" fill="#EE8700" p-id="3135"></path><path d="M634.92096 82.04288h-61.56288V143.36h61.56288V82.04288z" fill="#FFFFFF" p-id="3136"></path><path d="M634.92096 20.48h-61.56288v61.56288h61.56288V20.48zM573.35808 941.95712H512V1003.52h61.35808v-61.56288z" fill="#000000" p-id="3137"></path><path d="M573.35808 880.59904H512v61.35808h61.35808V880.64z" fill="#EE8700" p-id="3138"></path><path d="M573.35808 819.05664H512v61.5424h61.35808v-61.5424zM573.35808 757.71904H512v61.3376h61.35808v-61.3376z" fill="#EE8700" p-id="3139"></path><path d="M573.35808 696.36096H512v61.35808h61.35808v-61.35808zM573.35808 634.79808H512v61.56288h61.35808v-61.56288z" fill="#000000" p-id="3140"></path><path d="M573.35808 573.46048H512v61.35808h61.35808V573.44z" fill="#000000" p-id="3141"></path><path d="M573.35808 511.8976H512v61.56288h61.35808v-61.56288z" fill="#EE8700" p-id="3142"></path><path d="M573.35808 450.53952H512v61.35808h61.35808v-61.35808z" fill="#000000" p-id="3143"></path><path d="M573.35808 389.20192H512v61.3376h61.35808v-61.3376zM573.35808 327.63904H512v61.56288h61.35808v-61.56288z" fill="#EE8700" p-id="3144"></path><path d="M573.35808 266.28096H512v61.35808h61.35808v-61.35808z" fill="#EE8700" p-id="3145"></path><path d="M573.35808 204.73856H512v61.5424h61.35808V204.73856z" fill="#000000" p-id="3146"></path><path d="M573.35808 143.38048H512v61.35808h61.35808V143.38048z" fill="#EE8700" p-id="3147"></path><path d="M573.35808 82.04288H512V143.36h61.35808V82.04288zM512 941.95712h-61.35808V1003.52H512v-61.56288z" fill="#000000" p-id="3148"></path><path d="M512 880.59904h-61.35808v61.35808H512V880.64z" fill="#EE8700" p-id="3149"></path><path d="M512 819.05664h-61.35808v61.5424H512v-61.5424zM512 757.71904h-61.35808v61.3376H512v-61.3376z" fill="#EE8700" p-id="3150"></path><path d="M512 696.36096h-61.35808v61.35808H512v-61.35808zM512 634.79808h-61.35808v61.56288H512v-61.56288z" fill="#EE8700" p-id="3151"></path><path d="M512 573.46048h-61.35808v61.35808H512V573.44z" fill="#EE8700" p-id="3152"></path><path d="M512 511.8976h-61.35808v61.56288H512v-61.56288z" fill="#EE8700" p-id="3153"></path><path d="M512 450.53952h-61.35808v61.35808H512v-61.35808z" fill="#000000" p-id="3154"></path><path d="M512 389.20192h-61.35808v61.3376H512v-61.3376zM512 327.63904h-61.35808v61.56288H512v-61.56288z" fill="#EE8700" p-id="3155"></path><path d="M512 266.28096h-61.35808v61.35808H512v-61.35808z" fill="#FFFFFF" p-id="3156"></path><path d="M512 204.73856h-61.35808v61.5424H512V204.73856zM512 143.38048h-61.35808v61.35808H512V143.38048zM450.64192 941.95712h-61.58336V1003.52h61.58336v-61.56288z" fill="#000000" p-id="3157"></path><path d="M450.64192 880.59904h-61.58336v61.35808h61.58336V880.64z" fill="#EE8700" p-id="3158"></path><path d="M450.64192 819.05664h-61.58336v61.5424h61.58336v-61.5424zM450.64192 757.71904h-61.58336v61.3376h61.58336v-61.3376z" fill="#EE8700" p-id="3159"></path><path d="M450.64192 696.36096h-61.58336v61.35808h61.58336v-61.35808zM450.64192 634.79808h-61.58336v61.56288h61.58336v-61.56288z" fill="#EE8700" p-id="3160"></path><path d="M450.64192 573.46048h-61.58336v61.35808h61.58336V573.44z" fill="#EE8700" p-id="3161"></path><path d="M450.64192 511.8976h-61.58336v61.56288h61.58336v-61.56288z" fill="#FFFFFF" p-id="3162"></path><path d="M450.64192 450.53952h-61.58336v61.35808h61.58336v-61.35808z" fill="#000000" p-id="3163"></path><path d="M450.64192 389.20192h-61.58336v61.3376h61.58336v-61.3376zM450.64192 327.63904h-61.58336v61.56288h61.58336v-61.56288z" fill="#EE8700" p-id="3164"></path><path d="M450.64192 266.28096h-61.58336v61.35808h61.58336v-61.35808z" fill="#FFFFFF" p-id="3165"></path><path d="M450.64192 204.73856h-61.58336v61.5424h61.58336V204.73856zM389.05856 941.95712h-61.35808V1003.52h61.35808v-61.56288z" fill="#000000" p-id="3166"></path><path d="M389.05856 880.59904h-61.35808v61.35808h61.35808V880.64z" fill="#EE8700" p-id="3167"></path><path d="M389.05856 819.05664h-61.35808v61.5424h61.35808v-61.5424zM389.05856 757.71904h-61.35808v61.3376h61.35808v-61.3376z" fill="#EE8700" p-id="3168"></path><path d="M389.05856 696.36096h-61.35808v61.35808h61.35808v-61.35808z" fill="#EE8700" p-id="3169"></path><path d="M389.05856 634.79808h-61.35808v61.56288h61.35808v-61.56288z" fill="#FFFFFF" p-id="3170"></path><path d="M389.05856 573.46048h-61.35808v61.35808h61.35808V573.44z" fill="#FFFFFF" p-id="3171"></path><path d="M389.05856 511.8976h-61.35808v61.56288h61.35808v-61.56288z" fill="#000000" p-id="3172"></path><path d="M389.05856 450.53952h-61.35808v61.35808h61.35808v-61.35808z" fill="#EE8700" p-id="3173"></path><path d="M389.05856 389.20192h-61.35808v61.3376h61.35808v-61.3376zM389.05856 327.63904h-61.35808v61.56288h61.35808v-61.56288z" fill="#EE8700" p-id="3174"></path><path d="M389.05856 266.28096h-61.35808v61.35808h61.35808v-61.35808z" fill="#FFFFFF" p-id="3175"></path><path d="M389.05856 204.73856h-61.35808v61.5424h61.35808V204.73856zM327.70048 941.95712h-61.56288V1003.52H327.68v-61.56288z" fill="#000000" p-id="3176"></path><path d="M327.70048 880.59904h-61.56288v61.35808H327.68V880.64z" fill="#EE8700" p-id="3177"></path><path d="M327.70048 819.05664h-61.56288v61.5424H327.68v-61.5424zM327.70048 757.71904h-61.56288v61.3376H327.68v-61.3376z" fill="#EE8700" p-id="3178"></path><path d="M327.70048 696.36096h-61.56288v61.35808H327.68v-61.35808zM327.70048 634.79808h-61.56288v61.56288H327.68v-61.56288z" fill="#000000" p-id="3179"></path><path d="M327.70048 573.46048h-61.56288v61.35808H327.68V573.44z" fill="#000000" p-id="3180"></path><path d="M327.70048 511.8976h-61.56288v61.56288H327.68v-61.56288z" fill="#EE8700" p-id="3181"></path><path d="M327.70048 450.53952h-61.56288v61.35808H327.68v-61.35808z" fill="#000000" p-id="3182"></path><path d="M327.70048 389.20192h-61.56288v61.3376H327.68v-61.3376zM327.70048 327.63904h-61.56288v61.56288H327.68v-61.56288z" fill="#EE8700" p-id="3183"></path><path d="M327.70048 266.28096h-61.56288v61.35808H327.68v-61.35808zM266.1376 941.95712H204.77952V1003.52h61.35808v-61.56288z" fill="#000000" p-id="3184"></path><path d="M266.1376 880.59904H204.77952v61.35808h61.35808V880.64z" fill="#EE8700" p-id="3185"></path><path d="M266.1376 819.05664H204.77952v61.5424h61.35808v-61.5424zM266.1376 757.71904H204.77952v61.3376h61.35808v-61.3376z" fill="#EE8700" p-id="3186"></path><path d="M266.1376 696.36096H204.77952v61.35808h61.35808v-61.35808zM266.1376 634.79808H204.77952v61.56288h61.35808v-61.56288z" fill="#EE8700" p-id="3187"></path><path d="M266.1376 573.46048H204.77952v61.35808h61.35808V573.44z" fill="#EE8700" p-id="3188"></path><path d="M266.1376 511.8976H204.77952v61.56288h61.35808v-61.56288z" fill="#EE8700" p-id="3189"></path><path d="M266.1376 450.53952H204.77952v61.35808h61.35808v-61.35808z" fill="#000000" p-id="3190"></path><path d="M266.1376 389.20192H204.77952v61.3376h61.35808v-61.3376zM266.1376 327.63904H204.77952v61.56288h61.35808v-61.56288zM204.77952 941.95712H143.40096V1003.52H204.8v-61.56288z" fill="#000000" p-id="3191"></path><path d="M204.77952 880.59904H143.40096v61.35808H204.8V880.64z" fill="#EE8700" p-id="3192"></path><path d="M204.77952 819.05664H143.40096v61.5424H204.8v-61.5424zM204.77952 757.71904H143.40096v61.3376H204.8v-61.3376z" fill="#EE8700" p-id="3193"></path><path d="M204.77952 696.36096H143.40096v61.35808H204.8v-61.35808zM204.77952 634.79808H143.40096v61.56288H204.8v-61.56288z" fill="#EE8700" p-id="3194"></path><path d="M204.77952 573.46048H143.40096v61.35808H204.8V573.44z" fill="#EE8700" p-id="3195"></path><path d="M204.77952 511.8976H143.40096v61.56288H204.8v-61.56288z" fill="#FFFFFF" p-id="3196"></path><path d="M204.77952 450.53952H143.40096v61.35808H204.8v-61.35808zM143.42144 880.59904H81.83808v61.35808h61.58336V880.64z" fill="#000000" p-id="3197"></path><path d="M143.42144 819.05664H81.83808v61.5424h61.58336v-61.5424zM143.42144 757.71904H81.83808v61.3376h61.58336v-61.3376z" fill="#EE8700" p-id="3198"></path><path d="M143.42144 696.36096H81.83808v61.35808h61.58336v-61.35808z" fill="#EE8700" p-id="3199"></path><path d="M143.42144 634.79808H81.83808v61.56288h61.58336v-61.56288z" fill="#FFFFFF" p-id="3200"></path><path d="M143.42144 573.46048H81.83808v61.35808h61.58336V573.44z" fill="#FFFFFF" p-id="3201"></path><path d="M143.42144 511.8976H81.83808v61.56288h61.58336v-61.56288zM81.83808 880.59904H20.48v61.35808h61.35808V880.64z" fill="#000000" p-id="3202"></path><path d="M81.83808 819.05664H20.48v61.5424h61.35808v-61.5424zM81.83808 757.71904H20.48v61.3376h61.35808v-61.3376z" fill="#000000" p-id="3203"></path><path d="M81.83808 696.36096H20.48v61.35808h61.35808v-61.35808zM81.83808 634.79808H20.48v61.56288h61.35808v-61.56288z" fill="#000000" p-id="3204"></path><path d="M81.83808 573.46048H20.48v61.35808h61.35808V573.44z" fill="#000000" p-id="3205"></path></svg>